<svg xmlns="http://www.w3.org/2000/svg" preserveAspectRatio="none" viewBox="0 0 1440 320" transform="rotate(180)">
<defs><linearGradient id="a" x1="0%" y1="0%" x2="100%" y2="0%">
<stop offset="0%" stop-color ="#1e88e5"/>
<stop offset="100%" stop-color ="#8e24aa"/>
</linearGradient>
<filter id="b" width="120" height="120">
<feOffset in="SourceAlpha" dy="20"/>
<feGaussianBLur stdDeviation="8"/>
<feBlend in="SourceGraphic" in2="blurOut"/>
</filter>
</defs>
<path fill="url(#a)" filter="url(#b)" d="M0,64L48,80C96,96,192,128,288,160C384,192,480,224,576,229.3C672,235,768,213,864,186.7C960,160,1056,128,1152,117.3C1248,107,1344,117,1392,122.7L1440,128L1440,320L1392,320C1344,320,1248,320,1152,320C1056,320,960,320,864,320C768,320,672,320,576,320C480,320,384,320,288,320C192,320,96,320,48,320L0,320Z"></path></svg>